<svg viewBox="0 0 1981 910" fill="none" xmlns="http://www.w3.org/2000/svg">
<path d="M980.156 441C1212.94 441 1401.66 629.712 1401.66 862.5C1401.66 878.419 1400.77 894.131 1399.05 909.592C1277.68 833.823 1134.07 790 980.156 790C826.241 790 682.628 833.822 561.259 909.592C559.541 894.131 558.656 878.419 558.656 862.5C558.656 629.712 747.368 441 980.156 441Z" fill="#FFEA00"/>
<line x1="967.914" y1="327.117" x2="951.773" y2="179.742" stroke="#FFEA00" stroke-width="63" stroke-linecap="square"/>
<line x1="446.282" y1="781.718" x2="36.3741" y2="711.374" stroke="#FFEA00" stroke-width="63" stroke-linecap="square"/>
<line x1="516.21" y1="562.524" x2="363.179" y2="483.445" stroke="#FFEA00" stroke-width="63" stroke-linecap="square"/>
<line x1="724.395" y1="387.371" x2="516.027" y2="43.2611" stroke="#FFEA00" stroke-width="63" stroke-linecap="square"/>
<path d="M1456.66 549.239L1636.66 441" stroke="#FFEA00" stroke-width="63" stroke-linecap="square"/>
<line x1="1248.46" y1="398.153" x2="1432.81" y2="67.1911" stroke="#FFEA00" stroke-width="63" stroke-linecap="square"/>
<line x1="1525.52" y1="787.463" x2="1945.12" y2="729.137" stroke="#FFEA00" stroke-width="63" stroke-linecap="square"/>
</svg>
